<?xml version="1.0" encoding="UTF-8"?>
<svg width="93px" height="110px" viewBox="0 0 93 110" version="1.1" xmlns="http://www.w3.org/2000/svg" xmlns:xlink="http://www.w3.org/1999/xlink">
    <!-- Generator: Sketch 49.3 (51167) - http://www.bohemiancoding.com/sketch -->
    <title>Page 1</title>
    <desc>Created with Sketch.</desc>
    <defs></defs>
    <g id="Page-1" stroke="none" stroke-width="1" fill="none" fill-rule="evenodd">
        <g id="Desktop-HD-Copy-21" transform="translate(-674.000000, -1333.000000)" fill="#FFFFFF">
            <g id="Page-1" transform="translate(674.000000, 1333.000000)">
                <path d="M46.0880316,66 L30.8951584,49.6210209 C26.1226903,43.6925274 19.5896748,35.5712057 22.900854,26.1306091 C25.3809496,19.7224855 31.9497709,15.9954727 38.5810523,17.2378103 C41.6151655,17.6808542 44.323137,19.4119303 46.0346089,22.0061651 C47.7460807,19.4118134 50.4540522,17.6808425 53.4881655,17.2378103 C60.1195612,15.9954727 66.6882682,19.7179254 69.1683638,26.1306091 C72.2338214,34.8681303 66.1922491,42.2125964 61.3304381,48.1138462 C60.8478262,48.6984756 60.3786328,49.2739732 59.9272623,49.8312537 L46.0880316,66 Z M36.2303381,20.6912165 L36.2303381,20.6866447 C31.8734691,20.5815985 27.9054306,23.2398385 26.2699174,27.3641655 C23.642366,34.850112 28.9645046,41.464259 33.6608996,47.2965225 L33.8307084,47.5066266 L45.9806599,60.5742644 L57.201262,47.4657026 C57.6257725,46.9404481 58.1039116,46.3558186 58.595515,45.7575322 C63.0864556,40.3039916 68.1716811,34.1197812 65.7988885,27.3604122 L65.7988885,27.364984 C63.8773864,22.6560275 59.0155755,19.9428791 54.0996554,20.8381807 C50.3281485,21.3040602 47.5755627,24.7022307 47.8212844,28.5754009 L44.2464234,28.5754009 C44.4921908,24.7022307 41.7395592,21.3040134 37.9680523,20.8381807 C37.3916017,20.7376946 36.8107125,20.6874515 36.2298119,20.6874515 L36.2303381,20.6912165 Z" id="Fill-1"></path>
                <path d="M32.9998046,109.999097 L29.4079763,109.999097 L29.4079763,78.7253814 C29.3406338,78.3022526 28.5414434,75.9934937 27.8141241,74.0756504 C25.6185687,70.7136259 23.7149572,67.1631019 22.1211049,63.4562212 C21.1872296,61.4049801 19.9076192,58.5995057 19.2476423,58.3741541 C18.5921365,58.5995175 18.4260159,60.6553387 18.6100899,61.8925354 L19.301514,69.2466034 L15.7860049,69.9180782 L13.3704572,61.0416507 L6.35736939,48.4718823 C5.85451343,47.63024 5.08224161,47.0001504 4.1708942,46.6782531 C4.10355173,46.6690578 3.98232609,46.6598624 3.7398748,46.9082083 L3.7398748,46.9128119 C3.48844682,48.1085647 3.63211995,49.354945 4.14395261,50.4633358 C5.64355529,55.3476021 10.0435162,68.5055923 12.8451423,72.0471681 C13.6039203,73.0083974 14.3716406,74.080042 15.1663254,75.183841 C16.5761611,77.2810002 18.152083,79.2494711 19.8806431,81.0799524 L20.4283941,81.6226565 L20.4283941,110 L16.8365658,110 L16.8365658,83.1685638 C15.1888074,81.3426742 13.6623091,79.4018719 12.2704038,77.3644061 C11.5116257,76.3065959 10.7752837,75.2810224 10.0524354,74.361131 C6.24958006,69.5550431 0.978615137,52.4087771 0.754140236,51.6823302 C0.471288068,50.9510678 -1.0238435,46.5910795 1.19863042,44.3144868 L1.19863042,44.3098832 C2.02924503,43.4084533 3.20557167,42.930105 4.41782808,43.0082835 C6.42028672,43.38082 8.18470772,44.5857446 9.28926676,46.3380476 L9.4194691,46.535813 L15.5031642,57.4449968 L15.5031642,57.4496003 C15.9386777,56.244664 16.8815067,55.3064054 18.0713502,54.9016202 C21.6407654,53.7012756 23.3738082,57.5001102 25.3762669,61.9015307 C26.9117304,65.4797231 28.7525855,68.9106247 30.8807868,72.1530268 L31.0783431,72.5301552 C33,77.5340439 33,78.4308584 33,78.7252048 L32.9998046,109.999097 Z" id="Fill-2"></path>
                <path d="M76.1645937,109.999606 L72.5724515,109.999606 L72.5724515,81.622208 L73.1202503,81.0795029 C74.8489616,79.2490183 76.4250211,77.2805439 77.83498,75.183381 C78.6297458,74.07958 79.3975906,73.00333 80.1563659,72.0467025 C82.9582368,68.500764 87.3585822,55.3466358 88.817969,50.5782157 C89.3522958,49.4376214 89.5094535,48.1498537 89.262498,46.9126547 C89.0200255,46.6642966 88.8943063,46.6735037 88.831441,46.6826991 L88.831441,46.6781073 C87.9199334,47.0000522 87.1476746,47.6301312 86.6447747,48.4717397 L79.6310741,61.0415187 L77.2153154,69.9179738 L73.6994991,69.2464978 L74.3820061,61.9889507 C74.5975346,60.4757721 74.3685341,58.5810021 73.8117578,58.3923964 C73.0933294,58.5993576 71.8136072,61.4048487 70.8841332,63.4560935 L70.8796387,63.4560935 C69.2856472,67.1629808 67.3817544,70.7136406 65.1861222,74.0755416 C64.5664805,75.6300465 64.0321537,77.2168119 63.5876477,78.8357199 L63.5921421,110 L60,110 L60,78.7262229 C60,78.431876 60,77.5350598 61.9218248,72.535754 L62.1193984,72.158625 L62.1193984,72.1540331 C64.2477857,68.9116252 66.0886867,65.4805998 67.6243993,61.9025187 C69.6270329,57.5010904 71.3691931,53.7068409 74.9299543,54.9025958 C76.1199017,55.3073228 77.0628246,56.2455242 77.4983647,57.4505805 L83.7127131,46.3389843 C84.8172997,44.5866783 86.5819438,43.3817397 88.5845775,43.0092143 C89.7969398,42.9264322 90.9778062,43.4047459 91.8040564,44.3108163 C94.0267015,46.592005 92.5314623,50.9473974 92.2081695,51.7982955 C92.0240679,52.4099837 86.7525965,69.5556563 82.9494088,74.3664623 C82.2264859,75.2816928 81.4901369,76.3072681 80.7312466,77.365151 C79.3393347,79.4026203 77.812588,81.3434261 76.1646856,83.1693189 L76.1645937,109.999606 Z" id="Fill-3"></path>
                <polygon id="Fill-4" points="45 0 49 0 49 5 45 5"></polygon>
                <polygon id="Fill-5" points="17 12.4016729 19.3974364 10 23 13.5983271 20.6025636 16"></polygon>
                <polygon id="Fill-6" points="70 13.6000217 73.6000217 10 76 12.3999783 72.3999783 16"></polygon>
                <polygon id="Fill-7" points="29 5.2975232 32.0842789 4 34 8.7024768 30.9157211 10"></polygon>
                <polygon id="Fill-8" points="9 26.0842789 10.2975232 23 15 24.9157211 13.7024768 28"></polygon>
                <polygon id="Fill-9" points="78 24.9157211 82.7024768 23 84 26.0842789 79.2975232 28"></polygon>
                <polygon id="Fill-10" points="59 8.7024768 60.9157211 4 64 5.2975232 62.0842789 10"></polygon>
            </g>
        </g>
    </g>
</svg>