<?xml version="1.0" encoding="UTF-8"?>
<svg width="75px" height="74px" viewBox="0 0 75 74" version="1.1" xmlns="http://www.w3.org/2000/svg" xmlns:xlink="http://www.w3.org/1999/xlink">
    <!-- Generator: Sketch 49.3 (51167) - http://www.bohemiancoding.com/sketch -->
    <title>Page 1</title>
    <desc>Created with Sketch.</desc>
    <defs></defs>
    <g id="Page-1" stroke="none" stroke-width="1" fill="none" fill-rule="evenodd">
        <g id="Desktop-HD-Copy-20" transform="translate(-346.000000, -953.000000)" fill="#626262">
            <g id="Group-15" transform="translate(320.000000, 900.000000)">
                <g id="Group-10">
                    <g id="Page-1" transform="translate(26.000000, 53.000000)">
                        <polygon id="Fill-1" points="34 15 37 15 37 17 34 17"></polygon>
                        <polygon id="Fill-2" points="35 0 37 0 37 13 35 13"></polygon>
                        <polygon id="Fill-3" points="29 44 31 44 31 48 29 48"></polygon>
                        <polygon id="Fill-4" points="33 54 35 54 35 57 33 57"></polygon>
                        <polygon id="Fill-5" points="33 58 35 58 35 61 33 61"></polygon>
                        <polygon id="Fill-6" points="37 47 39 47 39 49 37 49"></polygon>
                        <polygon id="Fill-7" points="37 51 39 51 39 62 37 62"></polygon>
                        <polygon id="Fill-8" points="41 45 43 45 43 49 41 49"></polygon>
                        <polygon id="Fill-9" points="25 67 27 67 27 69 25 69"></polygon>
                        <polygon id="Fill-10" points="25 70 27 70 27 73 25 73"></polygon>
                        <polygon id="Fill-11" points="28 67 30 67 30 69 28 69"></polygon>
                        <polygon id="Fill-12" points="28 70 30 70 30 73 28 73"></polygon>
                        <polygon id="Fill-13" points="42 67 44 67 44 69 42 69"></polygon>
                        <polygon id="Fill-14" points="42 70 44 70 44 73 42 73"></polygon>
                        <polygon id="Fill-15" points="45 67 47 67 47 69 45 69"></polygon>
                        <polygon id="Fill-16" points="45 70 47 70 47 73 45 73"></polygon>
                        <polygon id="Fill-17" points="35 68 37 68 37 74 35 74"></polygon>
                        <polygon id="Fill-18" points="35 65 37 65 37 68 35 68"></polygon>
                        <path d="M66.964322,59.1831389 L66.964322,51.3687018 L58.0828766,51.3687018 L58.0828766,64.5574486 L54.5573657,64.5574486 L54.5573657,55.1369152 L48.619908,55.1369152 L48.619908,49.4485877 L47.2982643,49.4485877 L47.2982643,38.7719832 L45.077903,38.7719832 L45.077903,35.1084424 L42.4048417,35.1084424 L42.4048417,31.7589194 L40.5347476,31.7589194 L40.5347476,27.6603594 L39.5699689,26.7052429 L39.5699689,17 L34.0620348,17 L34.0620348,26.7085924 L33.0972561,27.6637089 L33.0972561,31.762269 L31.227162,31.7589948 L31.227162,35.1085178 L28.9010692,35.1085178 L28.9010692,38.7720586 L26.1520503,38.7720586 L26.1520503,49.4486631 L24.566078,49.4486631 L24.566078,59.1832143 L17.059142,59.1832143 L17.059142,56.1837165 L9.02354852,56.1837165 L9.02354852,67.4196913 L6.34388957,67.4196913 L6.34388957,64.1388336 L0,64.1388336 L0,73 L2.11462986,73 L2.11462986,66.2322854 L4.22925971,66.2322854 L4.22925971,69.5131432 L11.1381784,69.5131432 L11.1381784,58.2771683 L14.9445121,58.2771683 L14.9445121,61.2766662 L24.566078,61.2766662 L24.566078,62.8827624 L23.4030315,62.8827624 L23.4030315,72.9999992 L25.5176614,72.9999992 L25.5176614,64.9762143 L31.861551,64.9762143 L31.861551,72.9999992 L33.9761808,72.9999992 L33.9761808,62.8827624 L32.2844769,62.8827624 L32.2844769,49.4486631 L28.2666802,49.4486631 L28.2666802,40.8655104 L30.1698471,40.8655104 L30.1698471,42.7168755 L32.2844769,42.7168755 L32.2844769,40.8655104 L33.7647178,40.8655104 L33.7647178,52.4155031 L35.8793477,52.4155031 L35.8793477,40.8655104 L37.2174855,40.8655104 L37.2174855,46.115469 L39.3321153,46.115469 L39.3321153,40.8655104 L40.9015936,40.8655104 L40.9015936,43.2729801 L43.0162234,43.2729801 L43.0162234,40.8655104 L45.183719,40.8655104 L45.183719,49.4486631 L40.9015936,49.4486631 L40.9015936,62.8827624 L39.4742184,62.8827624 L39.4742184,72.9999992 L41.5888483,72.9999992 L41.5888483,64.9762143 L47.9327379,64.9762143 L47.9327379,72.9999992 L50.0473677,72.9999992 L50.0473677,62.8827624 L48.6199926,62.8827624 L48.6199926,57.2304424 L52.4428204,57.2304424 L52.4428204,66.6509758 L60.197591,66.6509758 L60.197591,53.462229 L64.8497767,53.462229 L64.8497767,61.2766662 L72.8853701,61.2766662 L72.8853701,72.9999992 L75,73 L75,59.1832143 L66.964322,59.1831389 Z M30.1697625,62.8826871 L29.4825078,62.8826871 L29.4825078,56.5336662 L27.3678779,56.5336662 L27.3678779,62.8826871 L26.6806232,62.8826871 L26.6806232,51.5420396 L27.3678779,51.5420396 L27.3678779,55.0322426 L29.4825078,55.0322426 L29.4825078,51.5420396 L30.1697625,51.5420396 L30.1697625,62.8826871 Z M33.3417073,33.8523713 L35.2118013,33.8523713 L35.2118013,28.530398 L36.1765801,27.5752815 L36.1765801,19.0934519 L37.4585533,19.0934519 L37.4585533,27.5752815 L38.423332,28.530398 L38.423332,33.8523713 L40.293426,33.8523713 L40.293426,35.1084424 L33.3415381,35.1084424 L33.3417073,33.8523713 Z M31.0156144,37.2018943 L42.9632731,37.2018943 L42.9632731,38.7719832 L31.0156144,38.7719832 L31.0156144,37.2018943 Z M45.8180234,62.8826871 L45.8180234,56.5336662 L43.7033936,56.5336662 L43.7033936,62.8826871 L43.0161389,62.8826871 L43.0161389,51.5420396 L43.7033936,51.5420396 L43.7033936,55.0322426 L45.8180234,55.0322426 L45.8180234,51.5420396 L46.5052781,51.5420396 L46.5052781,62.8826871 L45.8180234,62.8826871 Z" id="Fill-19"></path>
                        <path d="M14.6443141,19.2125302 C15.2637697,19.2125302 15.869836,19.0902846 16.4323229,18.8490919 C17.4133747,20.1838729 18.9905152,21 20.7115776,21 C22.821032,21 24.686102,19.7643486 25.526575,17.9339198 C25.7609645,17.9801775 25.995354,18.0033021 26.2330866,18.0033021 C28.3124537,18.0033021 30,16.3347624 30,14.2863671 C30,12.4956071 28.7075317,10.9956384 26.9964984,10.6453863 C26.343561,9.37666351 25.0075647,8.53744565 23.5342297,8.53744565 C23.1558582,8.53744565 22.7875416,8.5903091 22.4325714,8.696036 C21.7059673,7.0903404 20.0853331,6 18.213577,6 C15.7927062,6 13.8004295,7.83702607 13.5894754,10.172914 C11.5335953,10.6453779 10,12.4658344 10,14.6365346 C10.0033516,17.1574868 12.0860531,19.2125641 14.6442455,19.2125641 L14.6443141,19.2125302 Z M14.5873882,12.1651979 L15.9535747,12.1982354 L15.7593701,10.9526033 C15.7392862,10.8303577 15.7158421,10.708112 15.7158421,10.579252 C15.7158421,9.21799703 16.8375586,8.11116324 18.2171172,8.11116324 C19.4995564,8.11116324 20.5610125,9.06930272 20.6882192,10.3380255 L20.8857754,12.3104666 L22.4360859,11.0516398 C22.6604292,10.8666178 23.035449,10.6485581 23.5377441,10.6485581 C24.3112193,10.6485581 24.9976213,11.1672797 25.2119183,11.9106836 L25.43291,12.6772036 L26.2398755,12.6805108 C27.1339228,12.6838095 27.8604755,13.4007732 27.8604755,14.2829077 C27.8604755,15.1683917 27.1305283,15.8853046 26.2365325,15.8853046 C25.9485687,15.8853046 25.6706512,15.8060095 25.4061315,15.6507262 L24.0868332,14.8676874 L23.802221,16.3610588 C23.5243034,17.824742 22.2251662,18.8853097 20.7183151,18.8853097 C19.449248,18.8853097 18.3141595,18.1419143 17.818619,16.9888228 L17.2761817,15.7201 L16.1745235,16.5659152 C15.7224939,16.9128348 15.1934717,17.0978569 14.651043,17.0978569 C13.2714843,17.0978569 12.1497679,15.9910231 12.1497679,14.6297681 C12.1464163,13.2883897 13.2346253,12.1947506 14.5874396,12.1649779 L14.5873882,12.1651979 Z" id="Fill-20"></path>
                        <path d="M46.6409741,31.2125302 C47.2637726,31.2125302 47.8664958,31.0902846 48.4323256,30.8490919 C49.4133772,32.1838729 50.9905174,33 52.7115795,33 C54.8210334,33 56.6861031,31.7643486 57.5265759,29.9339198 C57.7609654,29.9801775 57.9953548,30.0033021 58.2330874,30.0033021 C60.312454,30.0033021 62,28.3347624 62,26.2863671 C62,24.4956071 60.7075319,22.9956384 58.996499,22.6453863 C58.3435618,21.3766635 57.0075657,20.5374456 55.534231,20.5374456 C55.1558596,20.5374456 54.7875431,20.5903091 54.432573,20.696036 C53.705969,19.0903404 52.0853351,18 50.2135794,18 C47.7927091,18 45.8004327,19.8370261 45.5894788,22.172914 C43.5369421,22.6453779 42.000004,24.4658344 42.000004,26.6365346 C41.9966524,29.1574868 44.0793707,31.2125641 46.6409055,31.2125641 L46.6409741,31.2125302 Z M46.5840483,24.1651979 L47.9502345,24.1982354 L47.7526784,22.9493047 C47.7325945,22.827059 47.7091504,22.7048133 47.7091504,22.5792605 C47.7091504,21.2180055 48.8308666,20.1111717 50.2104249,20.1111717 C51.4928639,20.1111717 52.5543198,21.0693112 52.6815265,22.338034 L52.8790826,24.3104751 L54.4293928,23.0516483 C54.6570876,22.8666262 55.0287558,22.6485666 55.5310508,22.6485666 C56.3045258,22.6485666 56.9909277,23.1672882 57.2052247,23.9106921 L57.4262163,24.6772121 L58.2331817,24.6805192 C59.1272287,24.6838179 59.8537813,25.4007816 59.8537813,26.2829162 C59.8537813,27.1684001 59.1238343,27.8853131 58.2298386,27.8853131 C57.9418749,27.8853131 57.6639574,27.8060179 57.3994378,27.6507347 L56.0801397,26.8676959 L55.792176,28.3610672 C55.5109155,29.8247505 54.2151215,30.8853182 52.7049277,30.8853182 C51.4358609,30.8853182 50.3007725,30.1419227 49.8052322,28.9888313 L49.262795,27.7201085 L48.161137,28.5692224 C47.7091075,28.9161419 47.1834284,29.101164 46.6376568,29.101164 C45.2614415,29.101164 44.1397253,27.9943302 44.1397253,26.6330752 C44.1397253,25.2883982 45.2312685,24.1947591 46.5840826,24.1649864 L46.5840483,24.1651979 Z" id="Fill-21"></path>
                        <polygon id="Fill-22" points="46 6 70 6 70 8 46 8"></polygon>
                        <polygon id="Fill-23" points="44 10 58 10 58 12 44 12"></polygon>
                        <polygon id="Fill-24" points="3 26 25 26 25 28 3 28"></polygon>
                        <polygon id="Fill-25" points="8 30 11 30 11 32 8 32"></polygon>
                        <polygon id="Fill-26" points="12 30 28 30 28 32 12 32"></polygon>
                    </g>
                </g>
            </g>
        </g>
    </g>
</svg>