<?xml version="1.0" encoding="UTF-8"?>
<svg width="73px" height="73px" viewBox="0 0 73 73" version="1.1" xmlns="http://www.w3.org/2000/svg" xmlns:xlink="http://www.w3.org/1999/xlink">
    <!-- Generator: Sketch 49.3 (51167) - http://www.bohemiancoding.com/sketch -->
    <title>Page 1</title>
    <desc>Created with Sketch.</desc>
    <defs></defs>
    <g id="Page-1" stroke="none" stroke-width="1" fill="none" fill-rule="evenodd">
        <g id="Desktop-HD-Copy-20" transform="translate(-894.000000, -961.000000)" fill="#626262">
            <g id="Group-15" transform="translate(320.000000, 900.000000)">
                <g id="Group-11" transform="translate(523.000000, 0.000000)">
                    <g id="Page-1" transform="translate(51.000000, 61.000000)">
                        <polygon id="Fill-1" points="8 8 10 8 10 10 8 10"></polygon>
                        <polygon id="Fill-2" points="12 8 14 8 14 10 12 10"></polygon>
                        <polygon id="Fill-3" points="17 8 19 8 19 10 17 10"></polygon>
                        <polygon id="Fill-4" points="66 19 68 19 68 21 66 21"></polygon>
                        <polygon id="Fill-5" points="62 19 64 19 64 21 62 21"></polygon>
                        <polygon id="Fill-6" points="57 19 59 19 59 21 57 21"></polygon>
                        <path d="M70.6454604,14.1289593 L70.6454604,4.70965311 C70.6454604,3.41152201 69.5887551,2.35482656 68.2906118,2.35482656 L25.9033379,2.35482656 C25.9033379,1.05669545 24.8466325,0 23.5484893,0 L2.35484931,0 C1.05670607,0 7.53551537e-07,1.05669545 7.53551537e-07,2.35482656 L7.53551537e-07,14.1289593 C7.53551537e-07,15.4270904 1.05670607,16.4837859 2.35484931,16.4837859 L10.1081441,16.4837859 L13.98479,20.3603956 C14.5146271,20.8902278 15.2475916,21.193439 15.9952655,21.193439 C17.5641598,21.193439 18.8387168,19.9188938 18.8387168,18.3500142 L18.8387168,16.4837859 L21.1935654,16.4837859 L21.1935654,23.5482656 L15.306444,23.5482656 C11.1619106,23.5482656 7.73249751,26.627173 7.15904479,30.6127452 L7.06485085,30.6127452 C4.46863597,30.6127452 2.35515073,32.7262115 2.35515073,35.3223983 L2.35515073,40.0320514 C2.35515073,42.6282383 4.46863597,44.7417046 7.06485085,44.7417046 L9.21955612,44.7417046 C10.3793473,47.0965311 11.9953386,49.2217527 13.9939833,51.0172985 L13.1992125,54.2081073 C5.84032584,54.690843 0,60.813377 0,68.2903469 L0,73 L40.0324217,73 L40.0324217,68.2903469 C40.0324217,60.8137537 34.1923972,54.6911293 26.8332129,54.2081073 L26.0355033,51.0172985 C28.0370869,49.2217527 29.6502146,47.0965311 30.8128693,44.7417046 L32.9675746,44.7417046 C34.7042848,44.7417046 36.2055102,43.7880186 37.0237918,42.386878 L40.0321202,42.386878 L40.0321202,47.0965311 L35.3224231,47.0965311 L35.3224231,49.4513577 L56.5160601,49.4513577 L56.5160601,47.0965311 L51.806363,47.0965311 L51.806363,42.386878 L68.2903029,42.386878 C69.5884461,42.386878 70.6451514,41.3301826 70.6451514,40.0320514 L70.6451514,25.9030921 C71.9432947,25.9030921 73,24.8463967 73,23.5482656 L73,16.4837859 C73,15.1856548 71.9432947,14.1289593 70.6451514,14.1289593 L70.6454604,14.1289593 Z M16.4839436,14.1289593 L16.4839436,18.3500142 C16.4839436,18.7473883 15.9305505,18.9769858 15.6508924,18.6944066 L11.0854251,14.1289819 L2.35477395,14.1289819 L2.35477395,2.35484916 L23.548414,2.35484916 L23.5513528,14.1289819 L16.4839436,14.1289593 Z M23.5484893,16.4837859 C24.8466325,16.4837859 25.9033379,15.4270904 25.9033379,14.1289593 L25.9033379,4.70965311 L68.2906118,4.70965311 L68.2906118,14.1289593 L54.1615205,14.1289593 C53.8406733,14.1289593 53.5315966,14.1937189 53.2549227,14.3114603 C51.4769932,10.0610172 47.2765462,7.06447213 42.3872024,7.06447213 C35.8936981,7.06447213 30.6129596,12.3451613 30.6129596,18.8386049 L30.6129596,23.548258 L23.548414,23.548258 L23.5484893,16.4837859 Z M37.6775806,21.193439 L37.6775806,18.5030591 C39.3936436,17.8731411 40.9978794,16.9283018 42.3872777,15.7331802 C43.7766761,16.9282264 45.3779731,17.8701571 47.0969749,18.5030591 L47.0969749,21.193439 C47.0969749,23.7896259 44.9834889,25.9030921 42.3872777,25.9030921 C39.7910666,25.9030921 37.6775806,23.7896259 37.6775806,21.193439 Z M49.4518234,21.193439 L49.4518234,16.8105228 L48.2743991,16.4190338 C46.5259335,15.8362124 44.9158199,14.8560318 43.564702,13.6020584 L43.564702,11.7741102 L41.2098535,11.7741102 L41.2098535,13.6049972 C39.8616744,14.8589706 38.248622,15.839106 36.5030952,16.4219726 L35.3227321,16.8105152 L35.3227321,21.1934315 C35.3227321,23.5511968 36.488401,25.6381383 38.2692693,26.9215753 L37.8836619,28.4640056 L35.7996398,28.9850138 C34.7811395,29.2381595 33.8186281,29.6855765 32.965005,30.2919613 L32.9679438,18.8388385 C32.9679438,13.6464648 37.1949158,9.41953229 42.387338,9.41953229 C47.5797603,9.41953229 51.8067323,13.6464648 51.8067323,18.8388385 L51.8096786,18.8388385 L51.8126175,23.5484916 L51.8067323,23.5484916 C51.8067323,23.6073585 51.8096786,23.6662329 51.8126175,23.7251074 L51.8185103,30.3156829 C50.9619482,29.703428 50.0023003,29.244218 48.97212,28.9852247 L46.8880979,28.4642165 L46.5024905,26.9217863 C48.2862977,25.6384247 49.4519666,23.5514078 49.4519666,21.1936425 L49.4518234,21.193439 Z M7.06454943,42.386878 C5.76640318,42.386878 4.70969786,41.3301826 4.70969786,40.0320514 L4.70969786,35.3223983 C4.70969786,34.0242672 5.76640318,32.9675718 7.06454943,32.9675718 L7.06454943,35.5461257 C7.06454943,37.9068299 7.46782007,40.2145599 8.22140175,42.386878 L7.06454943,42.386878 Z M23.807711,51.8061842 L24.3964232,54.1610108 L15.6363866,54.1610108 L16.2250987,51.8061842 L23.807711,51.8061842 Z M37.6775806,68.2899701 L37.6775806,70.6447967 L32.9678835,70.6447967 L32.9678835,65.9351436 L30.613035,65.9351436 L30.613035,70.6447967 L9.41939799,70.6447967 L9.41939799,65.9351436 L7.06454943,65.9351436 L7.06454943,70.6447967 L2.35484931,70.6447967 L2.35484931,68.2899701 C2.35484931,61.7965265 7.63559079,56.5158373 14.1290951,56.5158373 L25.9033379,56.5158373 C32.3968422,56.5158373 37.6775806,61.7965265 37.6775806,68.2899701 Z M24.2929982,49.4513577 L15.7386812,49.4513577 C11.7178055,45.9427038 9.4188705,40.8971205 9.4188705,35.5462011 L9.4188705,31.7902339 C9.4188705,28.543512 12.0592397,25.9031675 15.3059919,25.9031675 L30.6121307,25.9002286 L30.6121307,35.5433376 C30.6121307,40.897648 28.3131957,45.9429977 24.29232,49.4515084 L24.2929982,49.4513577 Z M35.3227321,40.0320514 C35.3227321,41.3301826 34.2660268,42.386878 32.9678835,42.386878 L31.8110312,42.386878 C32.5645827,40.2145599 32.9678835,37.9068299 32.9678835,35.5461257 L32.9678835,32.9675718 C34.2660268,32.9675718 35.3227321,34.0242672 35.3227321,35.3223983 L35.3227321,40.0320514 Z M35.684791,31.4868568 C35.9085054,31.4014953 36.1380975,31.3279042 36.3735823,31.2690373 L39.8263555,30.4066056 L40.4327308,27.9781577 C41.0538231,28.1577123 41.7102268,28.2577906 42.3872928,28.2577906 C43.0643589,28.2577906 43.7207023,28.1577123 44.3418548,27.9752114 L44.9482302,30.4036592 L48.4010033,31.2660909 C49.4636617,31.531007 50.4379285,32.0814261 51.2121273,32.8585565 C51.2445074,32.8909363 51.2709948,32.9321477 51.300436,32.9645199 L37.0244022,32.9674663 C36.6829529,32.3846448 36.2325702,31.8783684 35.685115,31.4869021 L35.684791,31.4868568 Z M49.4521776,47.0965311 L42.3876319,47.0965311 L42.3876319,42.386878 L49.4521776,42.386878 L49.4521776,47.0965311 Z M37.6779348,40.0320514 L37.6779348,35.3223983 L68.290966,35.3223983 L68.290966,40.0320514 L37.6779348,40.0320514 Z M68.290966,32.9675718 L54.1912632,32.9675718 C54.185378,32.9587402 54.1794852,32.9499087 54.1736,32.9381383 L54.1706536,25.9031223 L56.5166856,25.9031223 L56.5166856,27.7693506 C56.5166856,29.3382302 57.7912426,30.6127754 59.3601369,30.6127754 C60.1078032,30.6127754 60.840715,30.3095943 61.3706124,29.7797319 L65.2472583,25.9031223 L68.290966,25.9031223 L68.290966,32.9675718 Z M70.6458146,23.5482656 L64.2700904,23.5482656 L59.7016842,28.1166291 C59.4249876,28.3962619 58.8715718,28.1696108 58.8715718,27.7692903 L58.8715718,23.5482354 L57.6941475,23.5482354 L54.1677524,23.5511818 L54.1618672,16.4837633 L70.6458146,16.4837633 L70.6458146,23.5482656 Z" id="Fill-7"></path>
                    </g>
                </g>
            </g>
        </g>
    </g>
</svg>